#format: frame checksums
#version: 1
#hash: MD5
#tb 0: 1/25
#stream#, dts,        pts, duration,     size, hash
0,         -1,          0,        1,    16867, 617bc98c695065766ed010f68858cbd4
0,          0,          1,        1,     3662, d91b426f4ef54b248613171c5af109f1
0,          1,          2,        1,     4379, 53361dda3314fbef5fe5e7688c3ad4a2
0,          2,          3,        1,     3727, a23046506e7d839e609c4ef7323e61a5
0,          3,          4,        1,     4965, 92979e8fe3377c5d05509e971c1455bf
0,          4,          5,        1,     4028, a7be2c2921a9e56da2cc10354fcbc266
0,          5,          6,        1,     4415, 351e7aff9a770b644c81700a37c4d711
0,          6,          7,        1,     3753, f8cf780ea39a9d63e025f0620c219318
0,          7,          8,        1,     4698, 79bf90f709e0e94396297c4c032284d1
0,          8,          9,        1,     3673, 88d9ae89bb8c7a0c7a5ca45614cd2d8a
0,          9,         10,        1,     3996, 50df866ac03ad9bd07ddb34c14feecfe
0,         10,         11,        1,     3774, c4ef50fd90f63679c15a751eef57be38
0,         11,         12,        1,    15981, 3a4e6770b52c9598d07f982acaeba7f1
0,         12,         13,        1,     3934, 157cb626771fee851923697cf1178b2f
0,         13,         14,        1,     4204, baf92158354a4e5bf85dbb1382406c3d
0,         14,         15,        1,     4007, 377aab02de2b198a51e70054b315210f
0,         15,         16,        1,     4432, 648fc2b6f659bed49beb2a35258f38fa
0,         16,         17,        1,     3994, a31e02f53925424f76989a955de53452
0,         17,         18,        1,     4446, ba9a06d80ade7133da6216e968259ac5
0,         18,         19,        1,     4052, 1b34c634728938518a80f9e204259220
0,         19,         20,        1,     4413, 16d423503b474147b699ce6725047577
0,         20,         21,        1,     5308, 39d7169e18c1c478c52002d59eb75a96
0,         21,         22,        1,     4997, ea6c427f86a709090b7f25acf4332916
0,         22,         23,        1,     5023, c5a297c47667465ade14b86c9b5afab0
0,         23,         24,        1,    15814, ae62868586ab24ae378742885c180201
0,         24,         25,        1,     3618, 926d41fcf6e38fa5c0cff22c06ab3e03
0,         25,         26,        1,     4007, 6e5834b68efcccbffbb3f564d061c9f0
0,         26,         27,        1,     3874, 5dfb99a470dae15a7569cffd3d575478
0,         27,         28,        1,     4212, 6fcdcc20e8498cb175b91b241d540530
0,         28,         29,        1,     3631, 5594eefbc5240e1cf4e55adc54258e16
0,         29,         30,        1,     4187, 7d61abc506cbeeec7b98bfb8bf4f4c76
0,         30,         31,        1,     3947, 047d15cf8009a138c5f3cd5258aff7fd
0,         31,         32,        1,     4131, 2a297e495ad20661ad0d04c2eeeb376d
0,         32,         33,        1,     3764, 5550d196601c3aed041028b3baa105d7
0,         33,         34,        1,     4509, b9e2f1890b934681d8156c918d4800e7
0,         34,         35,        1,     4687, 813b04e6d0a9dcc1c7666258f98e4485
0,         35,         36,        1,    15120, b246fcc6b082fb7f38c12d6eb38162f5
0,         36,         37,        1,     4097, 7aaf2c7bdbfbb37bbdf493297e07e552
0,         37,         38,        1,     4487, 6329752e09e3395abcf0027cff958c01
0,         38,         39,        1,     4316, 76d28dbeebacf879a37612007b3186a8
0,         39,         40,        1,     4098, dfac106338c0ba853ca3111b402eac85
0,         40,         41,        1,     3673, 9e8bfe9c02dd55efd52a52e38562fb64
0,         41,         42,        1,     4187, 182ee9923ace9bd2834a078f198dbb0c
0,         42,         43,        1,     4071, d84fe36f44d2ae1692549938f5fd58cb
0,         43,         44,        1,     4031, d17e0afa264aeb100ff2fa70a60d5c5b
0,         44,         45,        1,     5388, d32be6ecd4375f1fffe30a943ed7c2c8
0,         45,         46,        1,     5179, 774f987f19d63c83d7a0e47ababcb578
0,         46,         47,        1,     5161, 4e2421be891dc15eed74489c91fe191a
0,         47,         48,        1,    15530, baac37f761a9b7d09b0b11ed717a92cb
0,         48,         49,        1,     3599, 0a23f3a6fadc8d0a220abef8a223763c
0,         49,         50,        1,     4004, 34f34a0825df14d12ec0f4bcc45f48f5
0,         50,         51,        1,     4266, 159b387816bda7dfb30fb32655b303a8
0,         51,         52,        1,     4472, 4fe01c97fba0449582115639298e7158
0,         52,         53,        1,     3921, bb0505ee60461948a394996b9a547d71
0,         53,         54,        1,     4276, 9b7aa2abc6d304cabbf27a86f951bad1
0,         54,         55,        1,     4213, db1ce627e33c7ba05081f94926326e00
0,         55,         56,        1,     4824, f3536835699996392afd7279a72be4ab
0,         56,         57,        1,     4011, a44fedbc41666f806c5fcd50222d42b1
0,         57,         58,        1,     4561, 45225d1afa3ce2ad6d969cd0868e8d23
0,         58,         59,        1,     3871, fa25ed72680d52026188ff676bd25da4
0,         59,         60,        1,    14345, cbcf62089d51888ed68b16e8441e0c52
0,         60,         61,        1,     4285, f3788fc43408773e8c311c92b16d293e
0,         61,         62,        1,     4236, a62b060cd0d3a082657938ea8a26aa67
0,         62,         63,        1,     4049, 7b70cc936d182dabc6701a2b5e023d77
0,         63,         64,        1,     4102, 54c238f1d22780215258c203322e0d7e
0,         64,         65,        1,     4033, 3447e7b27fe73e0c7aef02efb29adc59
0,         65,         66,        1,     4251, b621f68822a92c062388125be30cd3ee
0,         66,         67,        1,     4044, 7f5176c3b436e0601f86cb084fb5246e
0,         67,         68,        1,     3878, e186feade64737e8cba4e37de0dd13de
0,         68,         69,        1,     4979, 9bbf379564acbfe66161e83552c1916a
0,         69,         70,        1,     5059, 165d5a56b77b7d7146bd7f6aba7f8668
0,         70,         71,        1,     4570, faea492f47b1fa699b7b4fb2b070d5a9
0,         71,         72,        1,    14434, f20c484c8f32abf51200358c4279598c
0,         72,         73,        1,     3359, d25dd65919f3c9792682aa30bc149107
0,         73,         74,        1,     3859, 7e33a4354bd4dc545e68d3c32a8e52fa
0,         74,         75,        1,     3888, 46f65aa1b6d9eb37243f305f9fe5e79f
0,         75,         76,        1,     4033, 49fff17d55cf64f6dc1dd4e202cfa9b3
0,         76,         77,        1,     3433, 48d462105d2c11602c9437bf315db209
0,         77,         78,        1,     3724, fe6f9890679804cfea567583608ca2b4
0,         78,         79,        1,     4022, 24a51d81318c1ce1a5ae3119bf24fe5f
0,         79,         80,        1,     4021, bd3e3f675c104baa0c8f6443d2327287
0,         80,         81,        1,     3581, 6c39d702e7ab0bffe277cc3686ce8c50
0,         81,         82,        1,     4066, 747409256f6bf71bf065d5dd26ee13f2
0,         82,         83,        1,     3763, 2ecd028ec0888c709d81df892c1d17d0
0,         83,         84,        1,    13459, b887ca2cf834647306eba1049e4ad490
0,         84,         85,        1,     3902, 37a94e62b0919675e43c41f06609864e
0,         85,         86,        1,     3902, 56f438805e6fff47c811ee0979b06d9e
0,         86,         87,        1,     4068, b38d6eecfa939458ecdaf441db28e39c
0,         87,         88,        1,     3734, f25072bba6051a3aaf9c72da32430bcf
0,         88,         89,        1,     3706, e10c6e13f765f59c9fe46f752e6ee5d6
0,         89,         90,        1,     4070, 658af4a32fa4ec549bd5090b7daaf7bd
0,         90,         91,        1,     3588, 384acbd7ac603edc0e944d19b1d10b4e
0,         91,         92,        1,     4078, 1cc72475d7f67a80361235d60c16b2a4
0,         92,         93,        1,     5187, cd20b0e3965baea264122e3cafb96549
0,         93,         94,        1,     4846, 84d939968fe1396e904443cacf716c82
0,         94,         95,        1,     5008, 032197490da9598a44a04c6e5184fdb3
0,         95,         96,        1,    14611, 86dd72a12a9b8a38fbdcde0f123b9beb
0,         96,         97,        1,     3728, 3208c9f8c797b252aff5acf5ff85ee24
0,         97,         98,        1,     4153, de7284b898c13e243d71adae6504c19d
0,         98,         99,        1,     4031, a7ec82d759c34069ac80c98cab290798
0,         99,        100,        1,     4606, c7c7b9371f2a08428449f27da2e87b0f
0,        100,        101,        1,     4211, 36f7ca41c4586716445dbfe2e6914c2c
0,        101,        102,        1,     4165, e0e642323b90b1f9ffca437b27cfa2f1
0,        102,        103,        1,     4059, 14d8cdf77be7c16549642cd6f748eb0e
0,        103,        104,        1,     4184, 86b8e05c44164cc602fcac509e1104e4
0,        104,        105,        1,     4832, 6f1ca9739fbd908606b158069dfefadc
0,        105,        106,        1,     4950, 53af5d5e91ac4d50fb2eba6ac97bc88e
0,        106,        107,        1,     4531, a0f55f95b041089300768cba48764b3a
0,        107,        108,        1,    14833, 7f1729f1c21b94cae5ea20a1ed5be1c4
0,        108,        109,        1,     4310, 4937a647469d811a4330577f9d07444a
0,        109,        110,        1,     5138, d445c559aca36b61be2c1faf872b5886
0,        110,        111,        1,     1702, 8bf522943d9c133437c2657378d506e0
0,        111,        112,        1,      830, 9cf99f2e0d5771619217822083d5896b
0,        112,        113,        1,      971, 67d13588aed7d21d6ed924b470ac8e22
0,        113,        114,        1,      692, d3ef91029ae7363a538e5f66b84f6362
0,        114,        115,        1,     1254, 4d8930f4b562f66e611c372d87551be9
0,        115,        116,        1,      938, 8ecd7c8abd64460fd471b875b7b45871
0,        116,        117,        1,     3510, 124820dcefa8cc419becf79fc7c29aba
0,        117,        118,        1,     3267, 0bde340e25e0c61d23b3b74a35caaed2
0,        118,        119,        1,     3328, ecc367cbb814749540c3cb957be64ee8
0,        119,        120,        1,    16631, 215438aad3cc2c0a24c8dcf811c6e23b
0,        120,        121,        1,     1195, 24f4033d111aa3dc8636e3976761f139
0,        121,        122,        1,      697, 41f60fc82e3abc2a8c282423a0461d37
0,        122,        123,        1,      736, 8cbde814e2704160249f314ca7edf04a
0,        123,        124,        1,      432, c7f5f820e47fa31896736cdf4e87d0bb
0,        124,        125,        1,      625, 40ff0ce7993392b58e21e78875b83bf2
